<?xml version="1.0" encoding="UTF-8" standalone="no"?>
<!-- Uploaded to: SVG Repo, www.svgrepo.com, Generator: SVG Repo Mixer Tools -->

<svg
   width="800px"
   height="800px"
   viewBox="-16 0 256 256"
   version="1.1"
   preserveAspectRatio="xMidYMid"
   id="svg12"
   sodipodi:docname="debian.svg"
   inkscape:version="1.2.2 (b0a8486541, 2022-12-01)"
   xmlns:inkscape="http://www.inkscape.org/namespaces/inkscape"
   xmlns:sodipodi="http://sodipodi.sourceforge.net/DTD/sodipodi-0.dtd"
   xmlns="http://www.w3.org/2000/svg"
   xmlns:svg="http://www.w3.org/2000/svg">
  <defs
     id="defs16" />
  <sodipodi:namedview
     id="namedview14"
     pagecolor="#ffffff"
     bordercolor="#999999"
     borderopacity="1"
     inkscape:showpageshadow="0"
     inkscape:pageopacity="0"
     inkscape:pagecheckerboard="0"
     inkscape:deskcolor="#d1d1d1"
     showgrid="false"
     inkscape:zoom="0.79372736"
     inkscape:cx="383.00305"
     inkscape:cy="469.30472"
     inkscape:window-width="1896"
     inkscape:window-height="1006"
     inkscape:window-x="10"
     inkscape:window-y="60"
     inkscape:window-maximized="0"
     inkscape:current-layer="svg12" />
  <rect
     style="fill:#7f8487;fill-opacity:1;stroke-width:4.42688;stroke-linejoin:round"
     id="rect959"
     width="256"
     height="256"
     x="-16"
     y="0"
     ry="75.280975"
     rx="81.232582" />
  <g
     id="g10"
     transform="matrix(0.86314934,0,0,0.86314934,15.329061,17.516884)">
    <path
       d="M 207.9535,52.161792 127.31715,4.2869915 c -9.58397,-5.7159887 -21.5306,-5.7159887 -31.114579,0 L 15.550082,52.161792 C 5.848665,58.014362 -0.05794423,68.539535 4.2867948e-4,79.869434 V 175.60289 C -0.05224627,186.92704 5.8536257,197.44477 15.550082,203.29438 l 80.636342,47.85866 c 9.584946,5.71245 21.529636,5.71245 31.114586,0 l 80.63634,-47.85866 c 9.70761,-5.84857 15.62077,-16.37448 15.5658,-27.70764 V 79.869434 c 0.0584,-11.329899 -5.84824,-21.855072 -15.54965,-27.707642 z"
       fill="#ffffff"
       id="path2" />
    <path
       d="M 208.41153,52.276683 127.59758,4.296434 c -9.60508,-5.7285787 -21.57803,-5.7285787 -31.183115,0 L 15.584333,52.276683 C 5.8615472,58.142144 -0.05807185,68.690499 4.2962369e-4,80.045353 V 175.98967 C -0.05236135,187.33876 5.8665189,197.87966 15.584333,203.74216 l 80.81395,47.96406 c 9.606057,5.72504 21.577057,5.72504 31.183117,0 l 80.81395,-47.96406 c 9.72899,-5.86146 15.65518,-16.41055 15.60008,-27.76867 V 80.045353 c 0.0585,-11.354854 -5.86111,-21.903209 -15.5839,-27.76867 z M 99.23017,246.80301 18.416219,198.83895 C 10.430093,193.99964 5.5658593,185.32755 5.5996973,175.98967 V 80.045353 C 5.5626405,70.706641 10.427702,62.033071 18.416219,57.196074 L 99.23017,9.2158255 c 7.86518,-4.6922471 17.67035,-4.6922471 25.53552,0 l 80.74923,47.9802485 c 6.65664,4.031835 11.19758,10.792926 12.41175,18.480083 -2.68625,-5.71232 -8.72221,-7.281994 -15.76147,-3.236442 l -76.39621,47.316775 c -9.53132,5.5505 -16.5544,11.81302 -16.57058,23.30238 v 94.21282 c 0,6.87744 2.76716,11.32755 7.03926,12.63831 -1.399,0.25638 -2.81749,0.39173 -4.23974,0.40455 -4.49396,-0.003 -8.90417,-1.21624 -12.76776,-3.51154 z"
       fill="#2f3a3e"
       id="path4" />
    <path
       d="m 187.00732,185.05984 -20.08643,12.0131 c -0.53795,0.21621 -0.89847,0.72853 -0.92035,1.30788 v 5.27995 c 0,0.64587 0.43595,0.90422 0.96879,0.59743 l 20.39321,-12.40062 c 0.49942,-0.37439 0.73833,-1.00309 0.61358,-1.61467 v -4.63408 c -0.0162,-0.59743 -0.4844,-0.85578 -0.9688,-0.54899 z"
       fill="#3ab14a"
       id="path6" />
    <path
       d="m 144.26295,140.83187 c 0.64587,-0.32294 1.17871,0 1.19485,0.92036 l 0.0646,7.00764 c 2.41548,-1.09736 5.11027,-1.42435 7.7181,-0.93651 0.50054,0.12918 0.71045,0.80734 0.51669,1.61467 l -1.53393,6.15187 c -0.11629,0.46428 -0.35623,0.88836 -0.69431,1.22714 -0.11873,0.11715 -0.25491,0.2152 -0.40366,0.29064 -0.18253,0.0987 -0.39306,0.13287 -0.59743,0.0969 -2.54286,-0.5631 -5.20474,-0.13582 -7.4436,1.19486 -3.27367,1.47469 -5.41355,4.69392 -5.50601,8.28322 0,3.22933 1.61466,4.1174 7.24984,4.21428 7.44361,0.12917 10.67294,3.37465 10.75367,10.88284 -0.17723,7.83711 -3.7908,15.20007 -9.88175,20.13486 l 0.12918,6.87847 c -0.0115,0.85431 -0.45524,1.64457 -1.17871,2.09907 l -4.06895,2.34126 c -0.64587,0.32293 -1.17871,0 -1.19486,-0.90421 v -6.76545 c -3.48767,1.4532 -7.02379,1.79228 -9.28431,0.88807 -0.41982,-0.16147 -0.61358,-0.79119 -0.43597,-1.51778 l 1.46935,-6.21646 c 0.11173,-0.49196 0.36419,-0.94078 0.7266,-1.29173 0.11494,-0.1101 0.24552,-0.2026 0.38752,-0.2745 0.21052,-0.0946 0.45149,-0.0946 0.66201,0 2.87841,0.78041 5.94861,0.39156 8.54158,-1.08182 3.74177,-1.80461 6.17348,-5.53613 6.31333,-9.68799 0,-3.48767 -1.92145,-4.94087 -6.45865,-4.97317 -5.86124,0 -11.30266,-1.13026 -11.41568,-9.68798 0.13486,-7.47628 3.60558,-14.50062 9.46193,-19.14992 l -0.29064,-7.03994 c -0.003,-0.86661 0.44329,-1.67289 1.17871,-2.13136 z"
       fill="#ffffff"
       id="path8" />
  </g>
</svg>
